{
	"asset":{
		"generator":"Khronos glTF Blender I/O v4.4.55",
		"version":"2.0"
	},
	"extensionsUsed":[
		"KHR_materials_specular"
	],
	"scene":0,
	"scenes":[
		{
			"name":"Scene",
			"nodes":[
				0
			]
		}
	],
	"nodes":[
		{
			"mesh":0,
			"name":"HIgh_Res_Muffin",
			"rotation":[
				0.7071068286895752,
				0,
				0,
				0.7071068286895752
			],
			"scale":[
				3.819340467453003,
				3.819340467453003,
				3.819340467453003
			]
		}
	],
	"materials":[
		{
			"doubleSided":true,
			"extensions":{
				"KHR_materials_specular":{
					"specularFactor":0
				}
			},
			"name":"High_Res_Material.004",
			"normalTexture":{
				"index":0
			},
			"pbrMetallicRoughness":{
				"baseColorTexture":{
					"index":1
				},
				"metallicFactor":0
			}
		}
	],
	"meshes":[
		{
			"name":"HIgh_Res_Muffin.003",
			"primitives":[
				{
					"attributes":{
						"POSITION":0,
						"NORMAL":1,
						"TEXCOORD_0":2
					},
					"indices":3,
					"material":0
				}
			]
		}
	],
	"textures":[
		{
			"sampler":0,
			"source":0
		},
		{
			"sampler":0,
			"source":1
		}
	],
	"images":[
		{
			"mimeType":"image/png",
			"name":"Low_Res_Normal",
			"uri":"Low_Res_Normal.png"
		},
		{
			"mimeType":"image/png",
			"name":"Low_Res_Texture",
			"uri":"Low_Res_Texture.png"
		}
	],
	"accessors":[
		{
			"bufferView":0,
			"componentType":5126,
			"count":25571,
			"max":[
				0.05209900066256523,
				0.049623001366853714,
				0.015894999727606773
			],
			"min":[
				-0.04841800034046173,
				-0.0484590008854866,
				-0.01669899933040142
			],
			"type":"VEC3"
		},
		{
			"bufferView":1,
			"componentType":5126,
			"count":25571,
			"type":"VEC3"
		},
		{
			"bufferView":2,
			"componentType":5126,
			"count":25571,
			"type":"VEC2"
		},
		{
			"bufferView":3,
			"componentType":5123,
			"count":149898,
			"type":"SCALAR"
		}
	],
	"bufferViews":[
		{
			"buffer":0,
			"byteLength":306852,
			"byteOffset":0,
			"target":34962
		},
		{
			"buffer":0,
			"byteLength":306852,
			"byteOffset":306852,
			"target":34962
		},
		{
			"buffer":0,
			"byteLength":204568,
			"byteOffset":613704,
			"target":34962
		},
		{
			"buffer":0,
			"byteLength":299796,
			"byteOffset":818272,
			"target":34963
		}
	],
	"samplers":[
		{
			"magFilter":9729,
			"minFilter":9987
		}
	],
	"buffers":[
		{
			"byteLength":1118068,
			"uri":"Sin_nombre.bin"
		}
	]
}
